<svg width="512" height="512" viewBox="0 0 512 512" fill="none" xmlns="http://www.w3.org/2000/svg">
<path d="M384 32H128C110.4 32 96 46.4 96 64V448C96 465.6 110.4 480 128 480H384C401.6 480 416 465.6 416 448V64C416 46.4 401.6 32 384 32Z" fill="#43A047"/>
<path d="M350 288H162C153.6 288 147 281.4 147 273V239C147 230.6 153.6 224 162 224H350C358.4 224 365 230.6 365 239V273C365 281.4 358.4 288 350 288Z" fill="#FFFFFF"/>
<path d="M256 448C353.275 448 432 369.275 432 272C432 174.726 353.275 96 256 96C158.726 96 80 174.726 80 272C80 369.275 158.726 448 256 448Z" fill="#43A047"/>
<path d="M256 416C335.529 416 400 351.529 400 272C400 192.471 335.529 128 256 128C176.471 128 112 192.471 112 272C112 351.529 176.471 416 256 416Z" fill="#4CAF50"/>
<path d="M256 384C317.784 384 368 333.784 368 272C368 210.216 317.784 160 256 160C194.216 160 144 210.216 144 272C144 333.784 194.216 384 256 384Z" fill="#4CAF50"/>
<path d="M256 352C300.039 352 336 316.039 336 272C336 227.961 300.039 192 256 192C211.961 192 176 227.961 176 272C176 316.039 211.961 352 256 352Z" fill="#66BB6A"/>
<path d="M256 320C282.294 320 304 298.294 304 272C304 245.706 282.294 224 256 224C229.706 224 208 245.706 208 272C208 298.294 229.706 320 256 320Z" fill="#A5D6A7"/>
<path d="M150 256H362" stroke="white" stroke-width="24" stroke-linecap="round"/>
<path d="M256 150V362" stroke="white" stroke-width="24" stroke-linecap="round"/>
</svg> 